<svg xmlns="http://www.w3.org/2000/svg" width="600" height="400" viewBox="0 0 600 400">
  <rect width="600" height="400" fill="#0b1124"/>
  <rect x="20" y="20" width="560" height="360" rx="16" fill="none" stroke="rgba(169,214,255,0.3)" stroke-width="1.5"/>
  <!-- Glove illustration -->
  <!-- Palm -->
  <path d="M210 300 Q200 220 220 180 Q230 160 250 155 L280 150 Q300 148 320 150 L350 155 Q370 160 380 180 Q400 220 390 300 Z" fill="rgba(80,90,120,0.7)" stroke="#a9b0d9" stroke-width="2"/>
  <!-- Fingers -->
  <rect x="228" y="110" width="28" height="60" rx="14" fill="rgba(80,90,120,0.7)" stroke="#a9b0d9" stroke-width="2"/>
  <rect x="263" y="95" width="28" height="70" rx="14" fill="rgba(80,90,120,0.7)" stroke="#a9b0d9" stroke-width="2"/>
  <rect x="298" y="90" width="28" height="75" rx="14" fill="rgba(80,90,120,0.7)" stroke="#a9b0d9" stroke-width="2"/>
  <rect x="333" y="100" width="28" height="65" rx="14" fill="rgba(80,90,120,0.7)" stroke="#a9b0d9" stroke-width="2"/>
  <!-- Blood stains on fingertips -->
  <circle cx="242" cy="118" r="10" fill="rgba(200,40,60,0.7)"/>
  <circle cx="277" cy="103" r="10" fill="rgba(200,40,60,0.6)"/>
  <circle cx="312" cy="98" r="10" fill="rgba(200,40,60,0.8)"/>
  <circle cx="347" cy="108" r="9" fill="rgba(200,40,60,0.5)"/>
  <!-- Left-handed indicator -->
  <text x="300" y="340" text-anchor="middle" fill="#c8d0ef" font-family="sans-serif" font-size="15">CLUE-02 · 증거 이미지를 여기에 교체하세요</text>
  <text x="300" y="362" text-anchor="middle" fill="rgba(169,176,217,0.5)" font-family="monospace" font-size="11">/public/images/clue-02.svg (or .jpg/.png)</text>
</svg>
