<svg xmlns="http://www.w3.org/2000/svg" width="600" height="400" viewBox="0 0 600 400">
  <rect width="600" height="400" fill="#0b1124"/>
  <rect x="20" y="20" width="560" height="360" rx="16" fill="none" stroke="rgba(169,214,255,0.3)" stroke-width="1.5"/>
  <!-- Cross necklace illustration -->
  <circle cx="300" cy="160" r="80" fill="none" stroke="rgba(169,214,255,0.15)" stroke-width="1"/>
  <!-- Chain -->
  <path d="M300 80 Q340 100 360 140 Q380 180 360 220 Q340 260 300 280 Q260 260 240 220 Q220 180 240 140 Q260 100 300 80" fill="none" stroke="#a9b0d9" stroke-width="2" stroke-dasharray="6 4"/>
  <!-- Cross shape -->
  <rect x="285" y="130" width="30" height="70" rx="4" fill="rgba(169,214,255,0.6)" stroke="#a9d6ff" stroke-width="1.5"/>
  <rect x="265" y="148" width="70" height="22" rx="4" fill="rgba(169,214,255,0.6)" stroke="#a9d6ff" stroke-width="1.5"/>
  <!-- Crack line -->
  <path d="M300 155 L308 175 L296 195" fill="none" stroke="#ff6b6b" stroke-width="2.5" stroke-linecap="round"/>
  <!-- Number inscription hint -->
  <text x="300" y="230" text-anchor="middle" fill="#a9d6ff" font-family="monospace" font-size="14" opacity="0.7">63</text>
  <!-- Label -->
  <text x="300" y="340" text-anchor="middle" fill="#c8d0ef" font-family="sans-serif" font-size="15">CLUE-01 · 증거 이미지를 여기에 교체하세요</text>
  <text x="300" y="362" text-anchor="middle" fill="rgba(169,176,217,0.5)" font-family="monospace" font-size="11">/public/images/clue-01.svg (or .jpg/.png)</text>
</svg>
